# MagicaVoxel @ Ephtracy

# group
o 

# material
mtllib EnemyPlant.mtl
usemtl palette

# normals
vn -1 0 0
vn 1 0 0
vn 0 0 1
vn 0 0 -1
vn 0 -1 0
vn 0 1 0

# texcoords
vt 0.908203 0.5
vt 0.970703 0.5
vt 0.974609 0.5

# verts
v -0.3 0 0.5
v -0.3 0 0.1
v -0.3 0.1 0.5
v -0.3 0.1 0.1
v -0.3 0.2 0.4
v -0.3 0.2 0.3
v -0.3 0.2 0.2
v -0.3 0.2 0.1
v -0.3 0.3 0.4
v -0.3 0.3 0.3
v -0.3 0.3 0.2
v -0.3 0.3 0.1
v -0.3 0.4 0.4
v -0.3 0.4 0.3
v -0.3 0.4 0.2
v -0.3 0.4 0.1
v -0.2 0 0.6
v -0.2 0 0.5
v -0.2 0 0.1
v -0.2 0 5.96046e-008
v -0.2 0.1 0.6
v -0.2 0.1 0.5
v -0.2 0.1 0.1
v -0.2 0.1 5.96046e-008
v -0.2 0.2 0.4
v -0.2 0.2 0.3
v -0.2 0.2 0.2
v -0.2 0.2 0.1
v -0.2 0.3 0.5
v -0.2 0.3 0.4
v -0.2 0.3 0.3
v -0.2 0.3 0.2
v -0.2 0.4 0.4
v -0.2 0.4 0.3
v -0.2 0.4 0.2
v -0.2 0.4 0.1
v -0.2 0.5 0.4
v -0.2 0.5 0.3
v -0.2 0.5 0.2
v -0.2 0.5 0.1
v -0.1 0.1 0.6
v -0.1 0.1 0.5
v -0.1 0.1 0.1
v -0.1 0.1 5.96046e-008
v -0.1 0.2 0.6
v -0.1 0.2 0.5
v -0.1 0.2 0.1
v -0.1 0.3 0.1
v -0.1 0.3 5.96046e-008
v -0.1 0.4 0.5
v -0.1 0.4 0.4
v -0.1 0.4 0.1
v -0.1 0.4 5.96046e-008
v -0.1 0.5 0.5
v -0.1 0.5 0.4
v 0 0.2 0.6
v 0 0.2 0.5
v 0 0.3 0.6
v 0 0.3 0.5
v 0 0.4 0.6
v 0 0.4 0.5
v 0 0.4 0.1
v 0 0.4 5.96046e-008
v 0 0.5 0.1
v 0 0.5 5.96046e-008
v 0.1 0.1 0.5
v 0.1 0.1 0.1
v 0.1 0.2 0.5
v 0.1 0.2 0.4
v 0.1 0.2 0.3
v 0.1 0.2 0.2
v 0.1 0.2 0.1
v 0.1 0.3 0.4
v 0.1 0.3 0.3
v 0.1 0.3 0.2
v 0.1 0.3 0.1
v 0.1 0.4 0.4
v 0.1 0.4 0.3
v 0.1 0.4 0.2
v 0.1 0.4 0.1
v 0.1 0.5 0.4
v 0.1 0.5 0.3
v 0.1 0.5 0.2
v 0.1 0.5 0.1
v 0.2 0.2 0.5
v 0.2 0.2 0.4
v 0.2 0.2 0.3
v 0.2 0.2 0.2
v 0.2 0.3 0.5
v 0.2 0.3 0.4
v 0.2 0.3 0.3
v 0.2 0.3 0.2
v 0.2 0.4 0.5
v 0.2 0.4 0.4
v 0.2 0.4 0.3
v 0.2 0.4 0.2
v -0.2 0.2 0.4
v -0.2 0.2 0.3
v -0.2 0.2 0.2
v -0.2 0.2 0.1
v -0.2 0.3 0.4
v -0.2 0.3 0.3
v -0.2 0.3 0.2
v -0.2 0.3 0.1
v -0.2 0.4 0.4
v -0.2 0.4 0.3
v -0.2 0.4 0.2
v -0.2 0.4 0.1
v -0.1 0.1 0.5
v -0.1 0.1 0.1
v -0.1 0.2 0.5
v -0.1 0.2 0.4
v -0.1 0.2 0.3
v -0.1 0.2 0.2
v -0.1 0.2 0.1
v -0.1 0.3 0.5
v -0.1 0.3 0.4
v -0.1 0.3 0.3
v -0.1 0.3 0.2
v -0.1 0.4 0.4
v -0.1 0.4 0.3
v -0.1 0.4 0.2
v -0.1 0.4 0.1
v -0.1 0.5 0.4
v -0.1 0.5 0.3
v -0.1 0.5 0.2
v -0.1 0.5 0.1
v 0 0.2 0.1
v 0 0.2 5.96046e-008
v 0 0.3 0.1
v 0 0.3 5.96046e-008
v 0 0.4 0.5
v 0 0.4 0.4
v 0 0.4 0.1
v 0 0.4 5.96046e-008
v 0 0.5 0.5
v 0 0.5 0.4
v 0.1 0.1 0.6
v 0.1 0.1 0.5
v 0.1 0.1 0.1
v 0.1 0.1 5.96046e-008
v 0.1 0.2 0.5
v 0.1 0.2 0.1
v 0.1 0.2 5.96046e-008
v 0.1 0.3 0.6
v 0.1 0.3 0.5
v 0.1 0.4 0.6
v 0.1 0.4 0.5
v 0.1 0.4 0.1
v 0.1 0.4 5.96046e-008
v 0.1 0.5 0.1
v 0.1 0.5 5.96046e-008
v 0.2 0 0.6
v 0.2 0 0.5
v 0.2 0 0.1
v 0.2 0 5.96046e-008
v 0.2 0.1 0.6
v 0.2 0.1 0.5
v 0.2 0.1 0.1
v 0.2 0.1 5.96046e-008
v 0.2 0.2 0.5
v 0.2 0.2 0.4
v 0.2 0.2 0.3
v 0.2 0.2 0.2
v 0.2 0.3 0.4
v 0.2 0.3 0.3
v 0.2 0.3 0.2
v 0.2 0.3 0.1
v 0.2 0.4 0.4
v 0.2 0.4 0.3
v 0.2 0.4 0.2
v 0.2 0.4 0.1
v 0.2 0.5 0.4
v 0.2 0.5 0.3
v 0.2 0.5 0.2
v 0.2 0.5 0.1
v 0.3 0 0.5
v 0.3 0 0.1
v 0.3 0.1 0.5
v 0.3 0.1 0.1
v 0.3 0.2 0.5
v 0.3 0.2 0.4
v 0.3 0.2 0.3
v 0.3 0.2 0.2
v 0.3 0.3 0.5
v 0.3 0.3 0.4
v 0.3 0.3 0.3
v 0.3 0.3 0.2
v 0.3 0.4 0.5
v 0.3 0.4 0.4
v 0.3 0.4 0.3
v 0.3 0.4 0.2
v -0.2 0 0.6
v -0.2 0.1 0.6
v -0.1 0.1 0.6
v -0.1 0.2 0.6
v 0 0.2 0.6
v 0 0.3 0.6
v 0 0.4 0.6
v 0.1 0.1 0.6
v 0.1 0.3 0.6
v 0.1 0.4 0.6
v 0.2 0 0.6
v 0.2 0.1 0.6
v -0.3 0 0.5
v -0.3 0.1 0.5
v -0.2 0 0.5
v -0.2 0.1 0.5
v -0.2 0.3 0.5
v -0.1 0.1 0.5
v -0.1 0.2 0.5
v -0.1 0.3 0.5
v -0.1 0.4 0.5
v -0.1 0.5 0.5
v 0 0.4 0.5
v 0 0.5 0.5
v 0.1 0.1 0.5
v 0.1 0.2 0.5
v 0.2 0 0.5
v 0.2 0.1 0.5
v 0.2 0.2 0.5
v 0.2 0.3 0.5
v 0.2 0.4 0.5
v 0.3 0 0.5
v 0.3 0.1 0.5
v 0.3 0.2 0.5
v 0.3 0.3 0.5
v 0.3 0.4 0.5
v -0.3 0.2 0.4
v -0.3 0.3 0.4
v -0.3 0.4 0.4
v -0.2 0.2 0.4
v -0.2 0.3 0.4
v -0.2 0.4 0.4
v -0.2 0.5 0.4
v -0.1 0.4 0.4
v -0.1 0.5 0.4
v 0.1 0.2 0.4
v 0.1 0.3 0.4
v 0.1 0.4 0.4
v 0.1 0.5 0.4
v 0.2 0.2 0.4
v 0.2 0.3 0.4
v 0.2 0.4 0.4
v 0.2 0.5 0.4
v -0.2 0.2 0.3
v -0.2 0.3 0.3
v -0.1 0.2 0.3
v -0.1 0.3 0.3
v 0.2 0.2 0.3
v 0.2 0.3 0.3
v 0.2 0.4 0.3
v 0.3 0.2 0.3
v 0.3 0.3 0.3
v 0.3 0.4 0.3
v -0.3 0.2 0.2
v -0.3 0.3 0.2
v -0.3 0.4 0.2
v -0.2 0.2 0.2
v -0.2 0.3 0.2
v -0.2 0.4 0.2
v -0.2 0.5 0.2
v -0.1 0.4 0.2
v -0.1 0.5 0.2
v 0.1 0.2 0.2
v 0.1 0.3 0.2
v 0.1 0.4 0.2
v 0.1 0.5 0.2
v 0.2 0.2 0.2
v 0.2 0.3 0.2
v 0.2 0.4 0.2
v 0.2 0.5 0.2
v -0.1 0.1 0.1
v -0.1 0.2 0.1
v -0.1 0.3 0.1
v -0.1 0.4 0.1
v 0 0.2 0.1
v 0 0.3 0.1
v 0 0.4 0.1
v 0 0.5 0.1
v 0.1 0.1 0.1
v 0.1 0.2 0.1
v 0.1 0.4 0.1
v 0.1 0.5 0.1
v -0.1 0.1 0.5
v -0.1 0.2 0.5
v 0 0.2 0.5
v 0 0.3 0.5
v 0 0.4 0.5
v 0.1 0.1 0.5
v 0.1 0.2 0.5
v 0.1 0.3 0.5
v 0.1 0.4 0.5
v -0.2 0.2 0.4
v -0.2 0.3 0.4
v -0.1 0.2 0.4
v -0.1 0.3 0.4
v -0.1 0.4 0.4
v -0.1 0.5 0.4
v 0 0.4 0.4
v 0 0.5 0.4
v 0.2 0.2 0.4
v 0.2 0.3 0.4
v 0.2 0.4 0.4
v 0.3 0.2 0.4
v 0.3 0.3 0.4
v 0.3 0.4 0.4
v -0.3 0.2 0.3
v -0.3 0.3 0.3
v -0.3 0.4 0.3
v -0.2 0.2 0.3
v -0.2 0.3 0.3
v -0.2 0.4 0.3
v -0.2 0.5 0.3
v -0.1 0.4 0.3
v -0.1 0.5 0.3
v 0.1 0.2 0.3
v 0.1 0.3 0.3
v 0.1 0.4 0.3
v 0.1 0.5 0.3
v 0.2 0.2 0.3
v 0.2 0.3 0.3
v 0.2 0.4 0.3
v 0.2 0.5 0.3
v -0.2 0.2 0.2
v -0.2 0.3 0.2
v -0.1 0.2 0.2
v -0.1 0.3 0.2
v 0.2 0.2 0.2
v 0.2 0.3 0.2
v 0.2 0.4 0.2
v 0.3 0.2 0.2
v 0.3 0.3 0.2
v 0.3 0.4 0.2
v -0.3 0 0.1
v -0.3 0.1 0.1
v -0.3 0.2 0.1
v -0.3 0.3 0.1
v -0.3 0.4 0.1
v -0.2 0 0.1
v -0.2 0.1 0.1
v -0.2 0.2 0.1
v -0.2 0.3 0.1
v -0.2 0.4 0.1
v -0.2 0.5 0.1
v -0.1 0.1 0.1
v -0.1 0.2 0.1
v -0.1 0.4 0.1
v -0.1 0.5 0.1
v 0.1 0.1 0.1
v 0.1 0.2 0.1
v 0.1 0.3 0.1
v 0.1 0.4 0.1
v 0.1 0.5 0.1
v 0.2 0 0.1
v 0.2 0.1 0.1
v 0.2 0.3 0.1
v 0.2 0.4 0.1
v 0.2 0.5 0.1
v 0.3 0 0.1
v 0.3 0.1 0.1
v -0.2 0 5.96046e-008
v -0.2 0.1 5.96046e-008
v -0.1 0.1 5.96046e-008
v -0.1 0.3 5.96046e-008
v -0.1 0.4 5.96046e-008
v 0 0.2 5.96046e-008
v 0 0.3 5.96046e-008
v 0 0.4 5.96046e-008
v 0 0.5 5.96046e-008
v 0.1 0.1 5.96046e-008
v 0.1 0.2 5.96046e-008
v 0.1 0.4 5.96046e-008
v 0.1 0.5 5.96046e-008
v 0.2 0 5.96046e-008
v 0.2 0.1 5.96046e-008
v -0.2 0 0.6
v 0.2 0 0.6
v -0.3 0 0.5
v -0.2 0 0.5
v 0.2 0 0.5
v 0.3 0 0.5
v -0.3 0 0.1
v -0.2 0 0.1
v 0.2 0 0.1
v 0.3 0 0.1
v -0.2 0 5.96046e-008
v 0.2 0 5.96046e-008
v 0.2 0.2 0.5
v 0.3 0.2 0.5
v -0.3 0.2 0.4
v -0.2 0.2 0.4
v 0.2 0.2 0.4
v 0.3 0.2 0.4
v -0.3 0.2 0.3
v -0.2 0.2 0.3
v 0.2 0.2 0.3
v 0.3 0.2 0.3
v -0.3 0.2 0.2
v -0.2 0.2 0.2
v 0.2 0.2 0.2
v 0.3 0.2 0.2
v -0.3 0.2 0.1
v -0.2 0.2 0.1
v -0.1 0.4 0.5
v 0 0.4 0.5
v -0.2 0.4 0.4
v -0.1 0.4 0.4
v 0 0.4 0.4
v 0.1 0.4 0.4
v 0.2 0.4 0.4
v -0.2 0.4 0.3
v -0.1 0.4 0.3
v 0.1 0.4 0.3
v 0.2 0.4 0.3
v -0.2 0.4 0.2
v -0.1 0.4 0.2
v 0.1 0.4 0.2
v 0.2 0.4 0.2
v -0.2 0.4 0.1
v -0.1 0.4 0.1
v 0 0.4 0.1
v 0.1 0.4 0.1
v 0.2 0.4 0.1
v 0 0.4 5.96046e-008
v 0.1 0.4 5.96046e-008
v -0.2 0.1 0.6
v -0.1 0.1 0.6
v 0.1 0.1 0.6
v 0.2 0.1 0.6
v -0.3 0.1 0.5
v -0.2 0.1 0.5
v -0.1 0.1 0.5
v 0.1 0.1 0.5
v 0.2 0.1 0.5
v 0.3 0.1 0.5
v -0.3 0.1 0.1
v -0.2 0.1 0.1
v -0.1 0.1 0.1
v 0.1 0.1 0.1
v 0.2 0.1 0.1
v 0.3 0.1 0.1
v -0.2 0.1 5.96046e-008
v -0.1 0.1 5.96046e-008
v 0.1 0.1 5.96046e-008
v 0.2 0.1 5.96046e-008
v -0.1 0.2 0.6
v 0 0.2 0.6
v -0.1 0.2 0.5
v 0 0.2 0.5
v 0.1 0.2 0.5
v 0.2 0.2 0.5
v -0.2 0.2 0.4
v -0.1 0.2 0.4
v 0.1 0.2 0.4
v 0.2 0.2 0.4
v -0.2 0.2 0.3
v -0.1 0.2 0.3
v 0.1 0.2 0.3
v 0.2 0.2 0.3
v -0.2 0.2 0.2
v -0.1 0.2 0.2
v 0.1 0.2 0.2
v 0.2 0.2 0.2
v -0.2 0.2 0.1
v -0.1 0.2 0.1
v 0 0.2 0.1
v 0.1 0.2 0.1
v 0 0.2 5.96046e-008
v 0.1 0.2 5.96046e-008
v -0.2 0.3 0.5
v -0.1 0.3 0.5
v -0.2 0.3 0.4
v -0.1 0.3 0.4
v 0.1 0.3 0.4
v 0.2 0.3 0.4
v -0.2 0.3 0.3
v -0.1 0.3 0.3
v 0.1 0.3 0.3
v 0.2 0.3 0.3
v -0.2 0.3 0.2
v -0.1 0.3 0.2
v 0.1 0.3 0.2
v 0.2 0.3 0.2
v 0.1 0.3 0.1
v 0.2 0.3 0.1
v 0 0.4 0.6
v 0.1 0.4 0.6
v 0 0.4 0.5
v 0.1 0.4 0.5
v 0.2 0.4 0.5
v 0.3 0.4 0.5
v -0.3 0.4 0.4
v -0.2 0.4 0.4
v 0.2 0.4 0.4
v 0.3 0.4 0.4
v -0.3 0.4 0.3
v -0.2 0.4 0.3
v 0.2 0.4 0.3
v 0.3 0.4 0.3
v -0.3 0.4 0.2
v -0.2 0.4 0.2
v 0.2 0.4 0.2
v 0.3 0.4 0.2
v -0.3 0.4 0.1
v -0.2 0.4 0.1
v -0.1 0.4 0.1
v 0 0.4 0.1
v -0.1 0.4 5.96046e-008
v 0 0.4 5.96046e-008
v -0.1 0.5 0.5
v 0 0.5 0.5
v -0.2 0.5 0.4
v -0.1 0.5 0.4
v 0 0.5 0.4
v 0.1 0.5 0.4
v 0.2 0.5 0.4
v -0.2 0.5 0.3
v -0.1 0.5 0.3
v 0.1 0.5 0.3
v 0.2 0.5 0.3
v -0.2 0.5 0.2
v -0.1 0.5 0.2
v 0.1 0.5 0.2
v 0.2 0.5 0.2
v -0.2 0.5 0.1
v -0.1 0.5 0.1
v 0 0.5 0.1
v 0.1 0.5 0.1
v 0.2 0.5 0.1
v 0 0.5 5.96046e-008
v 0.1 0.5 5.96046e-008

# faces
f 3/2/1 2/2/1 1/2/1
f 4/2/1 2/2/1 3/2/1
f 9/3/1 6/3/1 5/3/1
f 10/3/1 6/3/1 9/3/1
f 11/3/1 8/3/1 7/3/1
f 12/3/1 8/3/1 11/3/1
f 13/1/1 10/1/1 9/1/1
f 14/1/1 10/1/1 13/1/1
f 15/1/1 12/1/1 11/1/1
f 16/1/1 12/1/1 15/1/1
f 21/2/1 18/2/1 17/2/1
f 22/2/1 18/2/1 21/2/1
f 23/2/1 20/2/1 19/2/1
f 24/2/1 20/2/1 23/2/1
f 25/3/1 23/3/1 22/3/1
f 26/3/1 23/3/1 25/3/1
f 27/3/1 23/3/1 26/3/1
f 28/3/1 23/3/1 27/3/1
f 29/3/1 25/3/1 22/3/1
f 30/3/1 25/3/1 29/3/1
f 31/3/1 27/3/1 26/3/1
f 32/3/1 27/3/1 31/3/1
f 37/1/1 34/1/1 33/1/1
f 38/1/1 34/1/1 37/1/1
f 39/1/1 36/1/1 35/1/1
f 40/1/1 36/1/1 39/1/1
f 45/3/1 42/3/1 41/3/1
f 46/3/1 42/3/1 45/3/1
f 47/3/1 44/3/1 43/3/1
f 48/3/1 44/3/1 47/3/1
f 49/3/1 44/3/1 48/3/1
f 52/1/1 49/1/1 48/1/1
f 53/1/1 49/1/1 52/1/1
f 54/1/1 51/1/1 50/1/1
f 55/1/1 51/1/1 54/1/1
f 58/3/1 57/3/1 56/3/1
f 59/3/1 57/3/1 58/3/1
f 60/1/1 59/1/1 58/1/1
f 61/1/1 59/1/1 60/1/1
f 64/1/1 63/1/1 62/1/1
f 65/1/1 63/1/1 64/1/1
f 68/3/1 67/3/1 66/3/1
f 69/3/1 67/3/1 68/3/1
f 70/3/1 67/3/1 69/3/1
f 71/3/1 67/3/1 70/3/1
f 72/3/1 67/3/1 71/3/1
f 73/3/1 70/3/1 69/3/1
f 74/3/1 70/3/1 73/3/1
f 75/3/1 72/3/1 71/3/1
f 76/3/1 72/3/1 75/3/1
f 81/1/1 78/1/1 77/1/1
f 82/1/1 78/1/1 81/1/1
f 83/1/1 80/1/1 79/1/1
f 84/1/1 80/1/1 83/1/1
f 89/3/1 86/3/1 85/3/1
f 90/3/1 86/3/1 89/3/1
f 91/3/1 88/3/1 87/3/1
f 92/3/1 88/3/1 91/3/1
f 93/1/1 90/1/1 89/1/1
f 94/1/1 90/1/1 93/1/1
f 95/1/1 92/1/1 91/1/1
f 96/1/1 92/1/1 95/1/1
f 97/3/2 98/3/2 101/3/2
f 101/3/2 98/3/2 102/3/2
f 99/3/2 100/3/2 103/3/2
f 103/3/2 100/3/2 104/3/2
f 101/1/2 102/1/2 105/1/2
f 105/1/2 102/1/2 106/1/2
f 103/1/2 104/1/2 107/1/2
f 107/1/2 104/1/2 108/1/2
f 109/3/2 110/3/2 111/3/2
f 111/3/2 110/3/2 112/3/2
f 112/3/2 110/3/2 113/3/2
f 113/3/2 110/3/2 114/3/2
f 114/3/2 110/3/2 115/3/2
f 111/3/2 112/3/2 116/3/2
f 116/3/2 112/3/2 117/3/2
f 113/3/2 114/3/2 118/3/2
f 118/3/2 114/3/2 119/3/2
f 120/1/2 121/1/2 124/1/2
f 124/1/2 121/1/2 125/1/2
f 122/1/2 123/1/2 126/1/2
f 126/1/2 123/1/2 127/1/2
f 128/3/2 129/3/2 130/3/2
f 130/3/2 129/3/2 131/3/2
f 130/1/2 131/1/2 134/1/2
f 134/1/2 131/1/2 135/1/2
f 132/1/2 133/1/2 136/1/2
f 136/1/2 133/1/2 137/1/2
f 138/3/2 139/3/2 142/3/2
f 140/3/2 141/3/2 143/3/2
f 143/3/2 141/3/2 144/3/2
f 138/3/2 142/3/2 145/3/2
f 145/3/2 142/3/2 146/3/2
f 145/1/2 146/1/2 147/1/2
f 147/1/2 146/1/2 148/1/2
f 149/1/2 150/1/2 151/1/2
f 151/1/2 150/1/2 152/1/2
f 153/2/2 154/2/2 157/2/2
f 157/2/2 154/2/2 158/2/2
f 155/2/2 156/2/2 159/2/2
f 159/2/2 156/2/2 160/2/2
f 158/3/2 159/3/2 161/3/2
f 161/3/2 159/3/2 162/3/2
f 162/3/2 159/3/2 163/3/2
f 163/3/2 159/3/2 164/3/2
f 162/3/2 163/3/2 165/3/2
f 165/3/2 163/3/2 166/3/2
f 164/3/2 159/3/2 167/3/2
f 167/3/2 159/3/2 168/3/2
f 169/1/2 170/1/2 173/1/2
f 173/1/2 170/1/2 174/1/2
f 171/1/2 172/1/2 175/1/2
f 175/1/2 172/1/2 176/1/2
f 177/2/2 178/2/2 179/2/2
f 179/2/2 178/2/2 180/2/2
f 181/3/2 182/3/2 185/3/2
f 185/3/2 182/3/2 186/3/2
f 183/3/2 184/3/2 187/3/2
f 187/3/2 184/3/2 188/3/2
f 185/1/2 186/1/2 189/1/2
f 189/1/2 186/1/2 190/1/2
f 187/1/2 188/1/2 191/1/2
f 191/1/2 188/1/2 192/1/2
f 195/2/3 194/2/3 193/2/3
f 197/3/3 196/3/3 195/3/3
f 200/2/3 195/2/3 193/2/3
f 200/3/3 197/3/3 195/3/3
f 200/3/3 198/3/3 197/3/3
f 201/1/3 199/1/3 198/1/3
f 201/3/3 198/3/3 200/3/3
f 202/1/3 199/1/3 201/1/3
f 203/2/3 200/2/3 193/2/3
f 204/2/3 200/2/3 203/2/3
f 207/2/3 206/2/3 205/2/3
f 208/2/3 206/2/3 207/2/3
f 210/3/3 209/3/3 208/3/3
f 211/3/3 209/3/3 210/3/3
f 212/3/3 209/3/3 211/3/3
f 215/1/3 214/1/3 213/1/3
f 216/1/3 214/1/3 215/1/3
f 220/3/3 218/3/3 217/3/3
f 221/3/3 218/3/3 220/3/3
f 224/2/3 220/2/3 219/2/3
f 225/2/3 220/2/3 224/2/3
f 226/3/3 222/3/3 221/3/3
f 227/1/3 223/1/3 222/1/3
f 227/3/3 222/3/3 226/3/3
f 228/1/3 223/1/3 227/1/3
f 232/3/3 230/3/3 229/3/3
f 233/1/3 231/1/3 230/1/3
f 233/3/3 230/3/3 232/3/3
f 234/1/3 231/1/3 233/1/3
f 236/1/3 235/1/3 234/1/3
f 237/1/3 235/1/3 236/1/3
f 242/3/3 239/3/3 238/3/3
f 243/3/3 239/3/3 242/3/3
f 244/1/3 241/1/3 240/1/3
f 245/1/3 241/1/3 244/1/3
f 248/3/3 247/3/3 246/3/3
f 249/3/3 247/3/3 248/3/3
f 253/3/3 251/3/3 250/3/3
f 254/1/3 252/1/3 251/1/3
f 254/3/3 251/3/3 253/3/3
f 255/1/3 252/1/3 254/1/3
f 259/3/3 257/3/3 256/3/3
f 260/1/3 258/1/3 257/1/3
f 260/3/3 257/3/3 259/3/3
f 261/1/3 258/1/3 260/1/3
f 263/1/3 262/1/3 261/1/3
f 264/1/3 262/1/3 263/1/3
f 269/3/3 266/3/3 265/3/3
f 270/3/3 266/3/3 269/3/3
f 271/1/3 268/1/3 267/1/3
f 272/1/3 268/1/3 271/1/3
f 277/3/3 274/3/3 273/3/3
f 277/3/3 275/3/3 274/3/3
f 278/1/3 276/1/3 275/1/3
f 278/3/3 275/3/3 277/3/3
f 279/1/3 276/1/3 278/1/3
f 281/3/3 277/3/3 273/3/3
f 282/3/3 277/3/3 281/3/3
f 283/1/3 280/1/3 279/1/3
f 284/1/3 280/1/3 283/1/3
f 285/3/4 286/3/4 287/3/4
f 285/3/4 287/3/4 290/3/4
f 287/3/4 288/3/4 290/3/4
f 290/3/4 288/3/4 291/3/4
f 288/1/4 289/1/4 292/1/4
f 291/3/4 288/3/4 292/3/4
f 292/1/4 289/1/4 293/1/4
f 294/3/4 295/3/4 296/3/4
f 296/3/4 295/3/4 297/3/4
f 298/1/4 299/1/4 300/1/4
f 300/1/4 299/1/4 301/1/4
f 302/3/4 303/3/4 305/3/4
f 303/1/4 304/1/4 306/1/4
f 305/3/4 303/3/4 306/3/4
f 306/1/4 304/1/4 307/1/4
f 308/3/4 309/3/4 311/3/4
f 309/1/4 310/1/4 312/1/4
f 311/3/4 309/3/4 312/3/4
f 312/1/4 310/1/4 313/1/4
f 313/1/4 314/1/4 315/1/4
f 315/1/4 314/1/4 316/1/4
f 317/3/4 318/3/4 321/3/4
f 321/3/4 318/3/4 322/3/4
f 319/1/4 320/1/4 323/1/4
f 323/1/4 320/1/4 324/1/4
f 325/3/4 326/3/4 327/3/4
f 327/3/4 326/3/4 328/3/4
f 329/3/4 330/3/4 332/3/4
f 330/1/4 331/1/4 333/1/4
f 332/3/4 330/3/4 333/3/4
f 333/1/4 331/1/4 334/1/4
f 335/2/4 336/2/4 340/2/4
f 340/2/4 336/2/4 341/2/4
f 337/3/4 338/3/4 342/3/4
f 338/1/4 339/1/4 343/1/4
f 342/3/4 338/3/4 343/3/4
f 343/1/4 339/1/4 344/1/4
f 341/3/4 342/3/4 346/3/4
f 346/3/4 342/3/4 347/3/4
f 344/1/4 345/1/4 348/1/4
f 348/1/4 345/1/4 349/1/4
f 350/3/4 351/3/4 356/3/4
f 351/3/4 352/3/4 356/3/4
f 356/3/4 352/3/4 357/3/4
f 353/1/4 354/1/4 358/1/4
f 358/1/4 354/1/4 359/1/4
f 355/2/4 356/2/4 360/2/4
f 360/2/4 356/2/4 361/2/4
f 362/2/4 363/2/4 364/2/4
f 364/3/4 365/3/4 367/3/4
f 365/1/4 366/1/4 368/1/4
f 367/3/4 365/3/4 368/3/4
f 368/1/4 366/1/4 369/1/4
f 362/2/4 364/2/4 371/2/4
f 364/3/4 367/3/4 371/3/4
f 371/3/4 367/3/4 372/3/4
f 369/1/4 370/1/4 373/1/4
f 373/1/4 370/1/4 374/1/4
f 362/2/4 371/2/4 375/2/4
f 375/2/4 371/2/4 376/2/4
f 380/2/5 378/2/5 377/2/5
f 381/2/5 378/2/5 380/2/5
f 383/2/5 380/2/5 379/2/5
f 383/2/5 382/2/5 381/2/5
f 383/2/5 381/2/5 380/2/5
f 384/2/5 382/2/5 383/2/5
f 385/2/5 382/2/5 384/2/5
f 386/2/5 382/2/5 385/2/5
f 387/2/5 385/2/5 384/2/5
f 388/2/5 385/2/5 387/2/5
f 393/3/5 390/3/5 389/3/5
f 394/3/5 390/3/5 393/3/5
f 395/3/5 392/3/5 391/3/5
f 396/3/5 392/3/5 395/3/5
f 401/3/5 398/3/5 397/3/5
f 402/3/5 398/3/5 401/3/5
f 403/3/5 400/3/5 399/3/5
f 404/3/5 400/3/5 403/3/5
f 408/1/5 406/1/5 405/1/5
f 409/1/5 406/1/5 408/1/5
f 412/1/5 408/1/5 407/1/5
f 413/1/5 408/1/5 412/1/5
f 414/1/5 411/1/5 410/1/5
f 415/1/5 411/1/5 414/1/5
f 420/1/5 417/1/5 416/1/5
f 421/1/5 417/1/5 420/1/5
f 423/1/5 419/1/5 418/1/5
f 424/1/5 419/1/5 423/1/5
f 425/1/5 423/1/5 422/1/5
f 426/1/5 423/1/5 425/1/5
f 427/2/6 428/2/6 432/2/6
f 432/2/6 428/2/6 433/2/6
f 429/2/6 430/2/6 434/2/6
f 434/2/6 430/2/6 435/2/6
f 431/2/6 432/2/6 437/2/6
f 437/2/6 432/2/6 438/2/6
f 433/2/6 434/2/6 439/2/6
f 439/2/6 434/2/6 440/2/6
f 435/2/6 436/2/6 441/2/6
f 441/2/6 436/2/6 442/2/6
f 438/2/6 439/2/6 443/2/6
f 443/2/6 439/2/6 444/2/6
f 440/2/6 441/2/6 445/2/6
f 445/2/6 441/2/6 446/2/6
f 447/3/6 448/3/6 449/3/6
f 449/3/6 448/3/6 450/3/6
f 451/3/6 452/3/6 455/3/6
f 455/3/6 452/3/6 456/3/6
f 453/3/6 454/3/6 457/3/6
f 457/3/6 454/3/6 458/3/6
f 459/3/6 460/3/6 463/3/6
f 463/3/6 460/3/6 464/3/6
f 461/3/6 462/3/6 465/3/6
f 465/3/6 462/3/6 466/3/6
f 467/3/6 468/3/6 469/3/6
f 469/3/6 468/3/6 470/3/6
f 471/3/6 472/3/6 473/3/6
f 473/3/6 472/3/6 474/3/6
f 475/3/6 476/3/6 479/3/6
f 479/3/6 476/3/6 480/3/6
f 477/3/6 478/3/6 481/3/6
f 481/3/6 478/3/6 482/3/6
f 483/3/6 484/3/6 485/3/6
f 485/3/6 484/3/6 486/3/6
f 487/1/6 488/1/6 489/1/6
f 489/1/6 488/1/6 490/1/6
f 491/1/6 492/1/6 495/1/6
f 495/1/6 492/1/6 496/1/6
f 493/1/6 494/1/6 497/1/6
f 497/1/6 494/1/6 498/1/6
f 499/1/6 500/1/6 503/1/6
f 503/1/6 500/1/6 504/1/6
f 501/1/6 502/1/6 505/1/6
f 505/1/6 502/1/6 506/1/6
f 507/1/6 508/1/6 509/1/6
f 509/1/6 508/1/6 510/1/6
f 511/1/6 512/1/6 514/1/6
f 514/1/6 512/1/6 515/1/6
f 513/1/6 514/1/6 518/1/6
f 518/1/6 514/1/6 519/1/6
f 516/1/6 517/1/6 520/1/6
f 520/1/6 517/1/6 521/1/6
f 522/1/6 523/1/6 526/1/6
f 526/1/6 523/1/6 527/1/6
f 524/1/6 525/1/6 529/1/6
f 529/1/6 525/1/6 530/1/6
f 528/1/6 529/1/6 531/1/6
f 531/1/6 529/1/6 532/1/6
